#!OML:ASF E:/inclinewalkrobotboard/Project1/Captureday1/Session1/subject1.ASF
:FULLY-SPECIFIED
:DEGREES
230
root 0 0 0 -2.297695125309083 -3.9640129849605863 0.4647456959141972
lowerback 7.438389286407102 1.531074447388118 -2.486966981148278
upperback 1.740857703149163 1.9021328263551802 -0.02781286744117817
thorax -2.3987774203094006 0.9985022182351899 1.2660432062630305
lowerneck -9.463824890329162 -5.457296309692718 -6.269460697556234
upperneck 31.387102675699975 -8.588917910480168 5.794171766026087
head 11.71657721538603 -3.9127197234323567 1.911556504368051
rclavicle -2.2247427002213144E-15 1.294958232151728E-15
rhumerus -7.787382278895322 1.4771447666059463 -79.36773874506734
rradius 48.88452354547486
rwrist -20.77884798682331
rhand -41.90421587574602 15.945826417583719
rfingers 7.12501999999994
rthumb -14.751948157918708 -13.466667863397937
lclavicle -6.088753984765392E-15 5.084764543977673E-16
lhumerus -30.346385135789056 11.346480070251424 78.1750518421136
lradius 25.050685751499532
lwrist -4.447003755781466
lhand -23.97944124981406 21.97110173286263
lfingers 7.12501999999995
lthumb 2.4970167936955048 51.90717429482218
rfemur -14.983767200330561 7.539957944899293 32.84404289530849
rtibia 37.18209333456362
rfoot -13.274421179331062 -9.47883940776614
rtoes 7.371199069316884
lfemur -24.614503925980227 3.582500481913831 -14.804297182470911
ltibia 58.75064983130988
lfoot -3.125720144764406 -7.375960641193023
ltoes -6.423668028398215
231
root 0 0 0 -2.3049406744651995 -3.955392405477412 0.4648770980491361
lowerback 7.40674043275821 1.5372395660511657 -2.47847718356832
upperback 1.7455833389813225 1.911624574143301 -0.03170905278517033
thorax -2.374223312394909 1.0034492288311023 1.2566320872157584
lowerneck -9.434064449849519 -5.4541922335547435 -6.274317799658437
upperneck 31.372744165401997 -8.587801607493795 5.788419277794927
head 11.711175125840164 -3.9123538331891665 1.908476495089254
rclavicle -2.4907837804246004E-15 1.3311675122038582E-15
rhumerus -8.198895949062003 1.9896559419391315 -79.45803157901378
rradius 49.489216708552114
rwrist -20.96352533020592
rhand -41.86402671778692 15.733365476179252
rfingers 7.1250199999999415
rthumb -14.718026882741501 -13.683988407183287
lclavicle -6.2239692160049735E-15 5.59719743525159E-16
lhumerus -30.353993029229954 11.301970179432704 78.1862570403729
lradius 25.033283244902066
lwrist -4.4701329521550015
lhand -23.924080598062577 22.000715667084044
lfingers 7.12501999999995
lthumb 2.550332447316493 51.93592016400798
rfemur -12.429130937535833 7.72486340859735 33.027607344776605
rtibia 34.961776791450326
rfoot -14.714026476758855 -9.47650199778268
rtoes 7.158769172471903
lfemur -25.24914027780531 3.7959373523623157 -14.173583737973873
ltibia 60.19338064011047
lfoot -3.7344054357972194 -6.472191748868214
ltoes -7.0509681919238005
232
root 0 0 0 -2.293740975665455 -3.933215008236356 0.46929845746970694
lowerback 7.394621443489335 1.547890962577776 -2.4762755632005837
upperback 1.7670052415726336 1.9258357907460135 -0.03850920427132676
thorax -2.343559997131429 1.0112317342174721 1.2467638834118362
lowerneck -9.37914484590379 -5.459132590492959 -6.29560032950204
upperneck 31.31634495764187 -8.594283507167724 5.817326527219192
head 11.691711249467625 -3.916264062452054 1.9189000823541755
rclavicle -2.7605512780261584E-15 1.4149212491691637E-15
rhumerus -8.693727679902537 2.595307061584016 -79.57259504067642
rradius 50.19016378900459
rwrist -21.152225307036186
rhand -41.83053420256154 15.516945146837386
rfingers 7.125019999999944
rthumb -14.690545672228584 -13.905451481344102
lclavicle -6.405015466079616E-15 7.038996184395673E-16
lhumerus -30.402932278059225 11.294427926591876 78.12621317523939
lradius 25.002752769063562
lwrist -4.512017307047364
lhand -23.902005639020224 22.02152701177663
lfingers 7.12501999999995
lthumb 2.571654613578872 51.95612382915566
rfemur -8.659077019342666 7.946529219170984 33.373598359069995
rtibia 32.30974645495055
rfoot -16.59012009051345 -9.440117467965376
rtoes 6.6728123096369885
lfemur -26.049878272575747 3.848708537405443 -13.70900948271008
ltibia 60.36544967496774
lfoot -4.3096024377411775 -5.68136009832484
ltoes -7.442635470370217
233
root 0 0 0 -2.2661257353116224 -3.9004525222488486 0.4776925004196248
lowerback 7.401412182040978 1.562055796602428 -2.480867712822588
upperback 1.8030033185391021 1.9434195232845233 -0.047826441366641825
thorax -2.3086897045354853 1.021129629184332 1.2372014783786063
lowerneck -9.30306368594491 -5.471888857942494 -6.33222502029392
upperneck 31.226036436792988 -8.608476368661265 5.877600991147572
head 11.660874732533404 -3.9243897034541084 1.9414810847382582
rclavicle -3.0068367560332973E-15 1.5498584405162357E-15
rhumerus -9.192257718368896 3.2017004598949654 -79.6941389861216
rradius 50.88444479768521
rwrist -21.316222522162146
rhand -41.81291256928009 15.330534282348774
rfingers 7.125019999999947
rthumb -14.677981329943117 -14.095998419000093
lclavicle -6.602609887203797E-15 9.311554104758566E-16
lhumerus -30.48558022439196 11.327461249170524 78.00266242578806
lradius 24.960570875151017
lwrist -4.5716682031309865
lhand -23.913322824922737 22.029754469694357
lfingers 7.12501999999995
lthumb 2.5608431862324728 51.964080889803874
rfemur -4.469351362457886 8.14785832863127 33.859863300004804
rtibia 29.8208331842212
rfoot -18.48013683498453 -9.331743556734846
rtoes 6.038936522738499
lfemur -27.078527919621855 3.701684015956163 -13.384751745536889
ltibia 59.06363031674778
lfoot -4.795395238056767 -4.978030826951196
ltoes -7.5808593340369494
234
root 0 0 0 -2.209275094596234 -3.842057899718877 0.4940619683754333
lowerback 7.43252508948335 1.5860702725910012 -2.4964347012613604
upperback 1.869209596175716 1.971926125008963 -0.0638631658662272
thorax -2.255970418156776 1.037405161561139 1.2245650663833412
lowerneck -9.175963502310989 -5.499481026782575 -6.402503716814919
upperneck 31.070882197122796 -8.638540133124678 5.99738843671852
head 11.608422814098411 -3.9410625081619237 1.9866839967575167
rclavicle -3.1768620262073533E-15 1.7379821779947275E-15
rhumerus -9.806176421982855 3.925862902338281 -79.85659466005718
rradius 51.655552234715046
rwrist -21.482107492701818
rhand -41.81141779086934 15.166470094316226
rfingers 7.1250199999999495
rthumb -14.6815099432302 -14.264225640232489
lclavicle -6.781524920813764E-15 1.2679471160733813E-15
lhumerus -30.652944417197116 11.458930324898377 77.7218365211567
lradius 24.888272346142998
lwrist -4.676438509957711
lhand -24.005638092001362 22.00649789364819
lfingers 7.125019999999952
lthumb 2.4722030408892817 51.94137580628851
rfemur -0.006014202507321986 8.343419940511733 34.4193218950634
rtibia 27.433910505204118
rfoot -20.329563107468413 -9.193538998458324
rtoes 5.215329917757051
lfemur -29.092265359674762 3.1189552889595724 -13.0236497064517
ltibia 54.538401543902296
lfoot -5.369640241339077 -3.953676988733031
ltoes -7.389089301051364
235
root 0 0 0 -2.170863557957457 -3.8017981673521155 0.5043108692015712
lowerback 7.459577217918488 1.6013238552815081 -2.508829941867962
upperback 1.9098408542690404 1.9896624317423972 -0.07380657650276412
thorax -2.2284424333304083 1.047468571224048 1.217810224004618
lowerneck -9.106416170351867 -5.518859379745774 -6.4486573552493
upperneck 30.97707026955024 -8.658944611813734 6.076708424047564
head 11.577973439317745 -3.9520451619837824 2.016839365893105
rclavicle -3.057489133087478E-15 1.7803837616561512E-15
rhumerus -10.039573100066217 4.187698956890637 -79.92697749981346
rradius 51.879895182876254
rwrist -21.51372307759558
rhand -41.824599734794155 15.163535820472356
rfingers 7.125019999999951
rthumb -14.695326050348527 -14.268267268719361
lclavicle -6.731178240878942E-15 1.383463341663012E-15
lhumerus -30.763737988390147 11.565835494000536 77.52607146947675
lradius 24.83975288773089
lwrist -4.747246341439639
lhand -24.082822779432487 21.978896517851794
lfingers 7.125019999999954
lthumb 2.398142492895019 51.914643328621565
rfemur 1.5108123107664224 8.416496985814593 34.579051942383124
rtibia 26.679589401830512
rfoot -20.875619929982815 -9.169531761501112
rtoes 4.7727925315155
lfemur -30.42372573470849 2.5777990165537705 -12.862631823524243
ltibia 50.51769012931629
lfoot -5.59954005490329 -3.410517213491266
ltoes -7.0452030698130645
236
root 0 0 0 -2.141123944295284 -3.7686749906874546 0.511099578679127
lowerback 7.486500413618906 1.612300211201016 -2.519338510919687
upperback 1.9364960420770339 2.0021881412474505 -0.08044186605098258
thorax -2.215980407573024 1.0544527743391132 1.2140337620892394
lowerneck -9.071038462843275 -5.533937036282441 -6.4816947767625255
upperneck 30.91321416684669 -8.673578401178952 6.135564206026928
head 11.558766643443386 -3.9596716603369324 2.039592594060203
rclavicle -2.8181445200376622E-15 1.7616697554933033E-15
rhumerus -10.117099846244301 4.238208383239778 -79.9649781600842
rradius 51.824335373549886
rwrist -21.492960362659257
rhand -41.84372574166997 15.235229446347304
rfingers 7.125019999999951
rthumb -14.713006511650661 -14.196498796171502
lclavicle -6.602288054785244E-15 1.41583435700485E-15
lhumerus -30.865319770542268 11.681147885315603 77.33853444704694
lradius 24.79971359382281
lwrist -4.805574855150011
lhand -24.174947678076535 21.942259099175686
lfingers 7.125019999999955
lthumb 2.3097913859817143 51.879141596201634
rfemur 2.252552278623607 8.453710095704817 34.6370233839796
rtibia 26.415375455388467
rfoot -21.037952336486597 -9.15742588913287
rtoes 4.378961759626833
lfemur -31.389698382793817 2.0254659225005405 -12.814824926722931
ltibia 46.55554524371995
lfoot -5.617334723734282 -3.1671143252887166
ltoes -6.576225172025211
237
root 0 0 0 -2.1212518836699754 -3.744541730313494 0.5137036348652868
lowerback 7.514094292221269 1.6179202444335758 -2.526881459620938
upperback 1.9466494613969023 2.0082482104897084 -0.08292741427025874
thorax -2.2218524010981398 1.057634726145432 1.2138199567011991
lowerneck -9.075585421298063 -5.543289172262617 -6.497693880657671
upperneck 30.879943069814317 -8.680237285033723 6.170118199643384
head 11.551001230041786 -3.9628788554408603 2.0537168197324376
rclavicle -2.519534546549595E-15 1.7169121978186208E-15
rhumerus -10.042772576802502 4.092120585912981 -79.97058440102836
rradius 51.53838685881842
rwrist -21.419473840136106
rhand -41.873897420674 15.36531665944147
rfingers 7.125019999999951
rthumb -14.739562550128237 -14.064752798214723
lclavicle -6.434804363137094E-15 1.4019524946243146E-15
lhumerus -30.947831533633266 11.788829917145186 77.17935816312608
lradius 24.768435423110894
lwrist -4.851109389600825
lhand -24.263804740821094 21.904200357690115
lfingers 7.125019999999956
lthumb 2.2246007133966375 51.84232791489083
rfemur 2.547674033000121 8.463690885379354 34.64812503316446
rtibia 26.493207212877998
rfoot -20.954073778480712 -9.127066059323829
rtoes 4.003443379952628
lfemur -31.91013294744524 1.5498344727920337 -12.896949593938132
ltibia 43.24553098359445
lfoot -5.402514678107887 -3.2525546179876184
ltoes -6.009551773960006
